<svg xmlns="http://www.w3.org/2000/svg" viewBox="0 0 25.3 25.8"><defs><style>.cls-1{fill:#fff;}</style></defs><g id="Layer_2" data-name="Layer 2"><g id="Layer_1-2" data-name="Layer 1"><path class="cls-1" d="M13.5,25.8c-3.7,0-8.4-.8-10.6-2.9S0,16,0,12.4C0,7.8,1.1,4.1,3,2.6,5.4.7,9.8,0,13.2,0a20.64,20.64,0,0,1,5.2.6,1,1,0,0,1,.7,1.2,1,1,0,0,1-1.2.7A22.83,22.83,0,0,0,13.1,2c-3.8,0-7.4.9-9,2.1C2.7,5.2,1.8,8.4,1.8,12.3s1,7.8,2.3,9.1,5.1,2.3,9.1,2.3,7.1-.9,8.2-2.3,1.8-4.5,1.9-8.1a1,1,0,0,1,1-1h0a1,1,0,0,1,1,1c0,4.1-.9,7.6-2.3,9.3C21.8,24.7,18.1,25.8,13.5,25.8Z"/><path class="cls-1" d="M5.8,16.9a.91.91,0,0,1-.7-.3,1,1,0,0,1,0-1.4l4-4a.94.94,0,0,1,1.3-.1l3.3,2.4,5.4-6.3a1,1,0,1,1,1.5,1.3l-6,7a1,1,0,0,1-1.4.1L9.9,13.1,6.5,16.5A.75.75,0,0,1,5.8,16.9Z"/><path class="cls-1" d="M21.8,6.6a1.69,1.69,0,0,1-1.7-1.7,1.7,1.7,0,1,1,3.4,0A1.69,1.69,0,0,1,21.8,6.6Zm0-2a.27.27,0,0,0-.3.3.3.3,0,0,0,.6,0A.27.27,0,0,0,21.8,4.6Z"/></g></g></svg>