<svg xmlns="http://www.w3.org/2000/svg" viewBox="0 0 80.8 70"><defs><style>.cls-1{fill:#fff;}</style></defs><g id="Layer_2" data-name="Layer 2"><g id="Layer_1-2" data-name="Layer 1"><path class="cls-1" d="M60.3,39.5H54a20.35,20.35,0,0,0-10,2.6,20.39,20.39,0,0,0-17.3-9.6H20.5A20.5,20.5,0,0,0,0,53v3.1a7,7,0,0,0,7,7H33.6a7,7,0,0,0,7,6.9H73.8a7,7,0,0,0,7-7V60A20.5,20.5,0,0,0,60.3,39.5ZM40.8,44.4A20.42,20.42,0,0,0,33.6,59H7a3,3,0,0,1-3-3V53A16.5,16.5,0,0,1,20.4,36.5h6.3A16.39,16.39,0,0,1,40.8,44.4ZM76.8,60v3a3,3,0,0,1-3,3H40.6a3,3,0,0,1-3-3V60A16.5,16.5,0,0,1,54,43.5h6.3A16.5,16.5,0,0,1,76.8,60Z"/><path class="cls-1" d="M42.7,21.5A14.5,14.5,0,1,0,57.2,7,14.5,14.5,0,0,0,42.7,21.5Zm25,0h0A10.5,10.5,0,0,1,57.2,32h-.1A10.5,10.5,0,1,1,67.6,21.5Z"/><path class="cls-1" d="M9.1,14.5A14.5,14.5,0,1,0,23.6,0,14.5,14.5,0,0,0,9.1,14.5Zm25,0h0A10.5,10.5,0,0,1,23.6,25h-.1A10.5,10.5,0,1,1,34,14.5Z"/></g></g></svg>