<svg xmlns="http://www.w3.org/2000/svg" viewBox="0 0 64.97 59.03"><defs><style>.cls-1{fill:#fff;}</style></defs><g id="Layer_2" data-name="Layer 2"><g id="Layer_1-2" data-name="Layer 1"><path class="cls-1" d="M62.49,27.53A3.08,3.08,0,0,1,61,27L32.49,5.63,4,27a2.55,2.55,0,0,1-3.5-.5A2.53,2.53,0,0,1,1,23L31,.53a2.38,2.38,0,0,1,3,0L64,23a2.53,2.53,0,0,1,.5,3.5A2.81,2.81,0,0,1,62.49,27.53Zm-5.7,23.9V31.53a2.5,2.5,0,1,0-5,0v19.9a2.65,2.65,0,0,1-2.6,2.6H15.79a2.65,2.65,0,0,1-2.6-2.6V31.53a2.5,2.5,0,0,0-5,0v19.9a7.6,7.6,0,0,0,7.6,7.6h33.3A7.63,7.63,0,0,0,56.79,51.43Z"/></g></g></svg>