<svg xmlns="http://www.w3.org/2000/svg" viewBox="0 0 26.2 42.02"><defs><style>.cls-1{fill:#fff;}</style></defs><g id="Layer_2" data-name="Layer 2"><g id="Layer_1-2" data-name="Layer 1"><path class="cls-1" d="M12.81,12.36A6.18,6.18,0,1,0,6.63,6.18,6.18,6.18,0,0,0,12.81,12.36ZM12.81,2A4.18,4.18,0,1,1,8.63,6.18,4.18,4.18,0,0,1,12.81,2Z"/><path class="cls-1" d="M18.67,28.53v-7a15.21,15.21,0,0,0,7,4.21l.52-1.93a13.59,13.59,0,0,1-7.53-5.46V16.16A2.66,2.66,0,0,0,16,13.5H9.61a2.59,2.59,0,0,0-1,.2h0a8.57,8.57,0,0,0-5.68,5.12C1.56,22.43,0,26.89,0,26.93l1.89.65s1.55-4.47,2.91-8.06A5.89,5.89,0,0,1,7,16.85v8a7.93,7.93,0,0,0,5.14,7.3,24.58,24.58,0,0,1-1.93,2.8c-.86,1-5,3.8-7.6,5.43L3.63,42c.68-.43,6.72-4.26,8.05-5.83a28.89,28.89,0,0,0,2.42-3.55c3.13.82,4,2.36,4.55,3.21,1.28,2.15,3.54,5.84,3.54,5.84l1.7-1S21.64,37,20.37,34.83c-1-1.67-2.55-3.49-6.57-4.31A5.94,5.94,0,0,1,9,24.8V16.16a.66.66,0,0,1,.66-.66H16a.66.66,0,0,1,.66.66V28.52h2Z"/></g></g></svg>